Coordinates
version=1
nRows=30
nColumns=21
inDegrees=yes

Units are S.I. units (second, meters, Newtons, ...)
If the header above contains a line with 'inDegrees', this indicates whether rotational values are in degrees (yes) or radians (no).

endheader
time	sternoclavicular_r2	sternoclavicular_r3	unrotscap_r3	unrotscap_r2	acromioclavicular_r2	acromioclavicular_r3	acromioclavicular_r1	unrothum_r1	unrothum_r3	unrothum_r2	elv_angle	shoulder_elev	shoulder1_r2	shoulder_rot	elbow_flexion	pro_sup	deviation	flexion	wrist_hand_r1	wrist_hand_r3
      0.00000000	    -10.76289345	      4.55865368	     -4.55865368	     10.76289345	     -2.17926699	     17.61206924	      7.91650391	     -7.91650391	    -17.61206924	      2.17926699	    127.75907416	     44.47466664	   -127.75907416	     19.91157391	      0.78336041	      0.00000000	      0.00000000	     -0.00000000	     -0.00000000	      0.00000000
      0.02010050	    -10.76441842	      4.55929959	     -4.55929959	     10.76441842	     -2.17957577	     17.61456466	      7.91762559	     -7.91762559	    -17.61456466	      2.17957577	    127.75521438	     44.48096817	   -127.75521438	     19.94604720	      0.75963801	      0.00000000	      0.00000000	     -0.00000000	     -0.00000000	      0.00000000
      0.04020101	    -10.76310733	      4.55874428	     -4.55874428	     10.76310733	     -2.17931030	     17.61241923	      7.91666123	     -7.91666123	    -17.61241923	      2.17931030	    127.75878651	     44.47555045	   -127.75878651	     19.91260970	      0.78146650	      0.00000000	      0.00000000	     -0.00000000	     -0.00000000	      0.00000000
      0.06030151	    -10.76450317	      4.55933549	     -4.55933549	     10.76450317	     -2.17959292	     17.61470333	      7.91768792	     -7.91768792	    -17.61470333	      2.17959292	    127.75540946	     44.48131836	   -127.75540946	     19.94605130	      0.75949973	      0.00000000	      0.00000000	     -0.00000000	     -0.00000000	      0.00000000
      0.08040201	    -10.76332650	      4.55883710	     -4.55883710	     10.76332650	     -2.17935467	     17.61277787	      7.91682244	     -7.91682244	    -17.61277787	      2.17935467	    127.75922927	     44.47645610	   -127.75922927	     19.91266832	      0.78132288	      0.00000000	      0.00000000	     -0.00000000	     -0.00000000	      0.00000000
      0.10050251	    -10.76582044	      4.55989342	     -4.55989342	     10.76582044	     -2.17985965	     17.61685887	      7.91865682	     -7.91865682	    -17.61685887	      2.17985965	    127.75449032	     44.48676160	   -127.75449032	     19.94577452	      0.75172532	      0.00000000	      0.00000000	     -0.00000000	     -0.00000000	      0.00000000
      0.12060302	    -10.76405851	      4.55914715	     -4.55914715	     10.76405851	     -2.17950289	     17.61397571	      7.91736086	     -7.91736086	    -17.61397571	      2.17950289	    127.76099669	     44.47948094	   -127.76099669	     19.91200955	      0.78154665	      0.00000000	      0.00000000	     -0.00000000	     -0.00000000	      0.00000000
      0.14070352	    -10.76574126	      4.55985988	     -4.55985988	     10.76574126	     -2.17984361	     17.61672931	      7.91859858	     -7.91859858	    -17.61672931	      2.17984361	    127.76443631	     44.48643443	   -127.76443631	     19.91498261	      0.77205959	      0.00000000	      0.00000000	     -0.00000000	     -0.00000000	      0.00000000
      0.16080402	    -10.76737111	      4.56055021	     -4.56055021	     10.76737111	     -2.18017362	     17.61939635	      7.91979740	     -7.91979740	    -17.61939635	      2.18017362	    127.75983121	     44.49316933	   -127.75983121	     19.94610633	      0.75603205	      0.00000000	      0.00000000	     -0.00000000	     -0.00000000	      0.00000000
      0.18090452	    -10.76926976	      4.56135439	     -4.56135439	     10.76926976	     -2.18055806	     17.62250323	      7.92119392	     -7.92119392	    -17.62250323	      2.18055806	    127.76194280	     44.50101496	   -127.76194280	     19.94560389	      0.75066627	      0.00000000	      0.00000000	     -0.00000000	     -0.00000000	      0.00000000
      0.20100503	    -10.77022849	      4.56176046	     -4.56176046	     10.77022849	     -2.18075219	     17.62407208	      7.92189911	     -7.92189911	    -17.62407208	      2.18075219	    127.76624030	     44.50497667	   -127.76624030	     19.94577259	      0.75473429	      0.00000000	      0.00000000	     -0.00000000	     -0.00000000	      0.00000000
      0.22110553	    -10.77221166	      4.56260044	     -4.56260044	     10.77221166	     -2.18115374	     17.62731727	      7.92335780	     -7.92335780	    -17.62731727	      2.18115374	    127.77064372	     44.51317155	   -127.77064372	     19.94569358	      0.75395099	      0.00000000	      0.00000000	     -0.00000000	     -0.00000000	      0.00000000
      0.24120603	    -10.77466454	      4.56363936	     -4.56363936	     10.77466454	     -2.18165040	     17.63133109	      7.92516198	     -7.92516198	    -17.63133109	      2.18165040	    127.77571117	     44.52330740	   -127.77571117	     19.94558216	      0.75251205	      0.00000000	      0.00000000	     -0.00000000	     -0.00000000	      0.00000000
      0.26130653	    -10.77768455	      4.56491850	     -4.56491850	     10.77768455	     -2.18226189	     17.63627295	      7.92738331	     -7.92738331	    -17.63627295	      2.18226189	    127.78153640	     44.53578677	   -127.78153640	     19.94543450	      0.74996168	      0.00000000	      0.00000000	     -0.00000000	     -0.00000000	      0.00000000
      0.28140704	    -10.78176045	      4.56664486	     -4.56664486	     10.78176045	     -2.18308717	     17.64294262	      7.93038129	     -7.93038129	    -17.64294262	      2.18308717	    127.78926886	     44.55262928	   -127.78926886	     19.94521226	      0.74265493	      0.00000000	      0.00000000	     -0.00000000	     -0.00000000	      0.00000000
      0.30150754	    -10.78479123	      4.56792855	     -4.56792855	     10.78479123	     -2.18370084	     17.64790210	      7.93261054	     -7.93261054	    -17.64790210	      2.18370084	    127.79921535	     44.56515314	   -127.79921535	     19.94576327	      0.74651588	      0.00000000	      0.00000000	     -0.00000000	     -0.00000000	      0.00000000
      0.32160804	    -10.78837419	      4.56944612	     -4.56944612	     10.78837419	     -2.18442632	     17.65376514	      7.93524594	     -7.93524594	    -17.65376514	      2.18442632	    127.80992042	     44.57995873	   -127.80992042	     19.94522034	      0.75191322	      0.00000000	      0.00000000	     -0.00000000	     -0.00000000	      0.00000000
      0.34170854	    -10.79332011	      4.57154098	     -4.57154098	     10.79332011	     -2.18542777	     17.66185849	      7.93888384	     -7.93888384	    -17.66185849	      2.18542777	    127.82238868	     44.60039635	   -127.82238868	     19.94515362	      0.75027822	      0.00000000	      0.00000000	     -0.00000000	     -0.00000000	      0.00000000
      0.36180905	    -10.79951722	      4.57416579	     -4.57416579	     10.79951722	     -2.18668256	     17.67199926	      7.94344204	     -7.94344204	    -17.67199926	      2.18668256	    127.83441438	     44.62600420	   -127.83441438	     19.94477943	      0.74546429	      0.00000000	      0.00000000	     -0.00000000	     -0.00000000	      0.00000000
      0.38190955	    -10.80468259	      4.57635359	     -4.57635359	     10.80468259	     -2.18772844	     17.68045171	      7.94724136	     -7.94724136	    -17.68045171	      2.18772844	    127.85032071	     44.64734866	   -127.85032071	     19.94477454	      0.74951292	      0.00000000	      0.00000000	     -0.00000000	     -0.00000000	      0.00000000
      0.40201005	    -10.81147214	      4.57922932	     -4.57922932	     10.81147214	     -2.18910319	     17.69156191	      7.95223532	     -7.95223532	    -17.69156191	      2.18910319	    127.86622601	     44.67540456	   -127.86622601	     19.94463937	      0.74644565	      0.00000000	      0.00000000	     -0.00000000	     -0.00000000	      0.00000000
      0.42211055	    -10.81910603	      4.58246268	     -4.58246268	     10.81910603	     -2.19064889	     17.70405378	      7.95785033	     -7.95785033	    -17.70405378	      2.19064889	    127.88442428	     44.70694949	   -127.88442428	     19.94414183	      0.74623268	      0.00000000	      0.00000000	     -0.00000000	     -0.00000000	      0.00000000
      0.44221106	    -10.82706929	      4.58583554	     -4.58583554	     10.82706929	     -2.19226129	     17.71708461	      7.96370760	     -7.96370760	    -17.71708461	      2.19226129	    127.90297276	     44.73985545	   -127.90297276	     19.94408197	      0.74293585	      0.00000000	      0.00000000	     -0.00000000	     -0.00000000	      0.00000000
      0.46231156	    -10.83701587	      4.59004844	     -4.59004844	     10.83701587	     -2.19427527	     17.73336090	      7.97102368	     -7.97102368	    -17.73336090	      2.19427527	    127.92333788	     44.78095696	   -127.92333788	     19.94356796	      0.73020698	      0.00000000	      0.00000000	     -0.00000000	     -0.00000000	      0.00000000
      0.48241206	    -10.84537478	      4.59358888	     -4.59358888	     10.84537478	     -2.19596778	     17.74703915	      7.97717196	     -7.97717196	    -17.74703915	      2.19596778	    127.94622463	     44.81549780	   -127.94622463	     19.94357415	      0.73442372	      0.00000000	      0.00000000	     -0.00000000	     -0.00000000	      0.00000000
      0.50251256	    -10.83885157	      4.59082596	     -4.59082596	     10.83885157	     -2.19464696	     17.73636478	      7.97237390	     -7.97237390	    -17.73636478	      2.19464696	    128.01340509	     44.78854246	   -128.01340509	     19.58615844	      0.98333967	      0.00000000	      0.00000000	     -0.00000000	     -0.00000000	      0.00000000
      0.52261307	    -10.86788577	      4.60312348	     -4.60312348	     10.86788577	     -2.20052580	     17.78387546	      7.99372963	     -7.99372963	    -17.78387546	      2.20052580	    127.99120122	     44.90851823	   -127.99120122	     19.94316533	      0.71822717	      0.00000000	      0.00000000	     -0.00000000	     -0.00000000	      0.00000000
      0.54271357	    -10.87809818	      4.60744897	     -4.60744897	     10.87809818	     -2.20259360	     17.80058672	      8.00124122	     -8.00124122	    -17.80058672	      2.20259360	    128.02619094	     44.95071816	   -128.02619094	     19.94286829	      0.73214893	      0.00000000	      0.00000000	     -0.00000000	     -0.00000000	      0.00000000
      0.56281407	    -10.89138055	      4.61307475	     -4.61307475	     10.89138055	     -2.20528301	     17.82232159	      8.01101090	     -8.01101090	    -17.82232159	      2.20528301	    128.05353672	     45.00560387	   -128.05353672	     19.94221510	      0.72328952	      0.00000000	      0.00000000	     -0.00000000	     -0.00000000	      0.00000000
      0.58291457	    -10.90408868	      4.61845732	     -4.61845732	     10.90408868	     -2.20785615	     17.84311679	      8.02035820	     -8.02035820	    -17.84311679	      2.20785615	    128.08855816	     45.05811669	   -128.08855816	     19.94204493	      0.72646491	      0.00000000	      0.00000000	     -0.00000000	     -0.00000000	      0.00000000
